<?xml version="1.0" standalone="no"?>
<!DOCTYPE svg PUBLIC "-//W3C//DTD SVG 20010904//EN"
 "http://www.w3.org/TR/2001/REC-SVG-20010904/DTD/svg10.dtd">
<svg version="1.0" xmlns="http://www.w3.org/2000/svg"
 width="512.000000pt" height="512.000000pt" viewBox="0 0 512.000000 512.000000"
 preserveAspectRatio="xMidYMid meet">
<metadata>
Created by potrace 1.16, written by Peter Selinger 2001-2019
</metadata>
<g transform="translate(0.000000,512.000000) scale(0.100000,-0.100000)"
fill="#000000" stroke="none">
<path d="M260 1056 l0 -266 80 0 80 0 0 266 0 266 -31 -26 c-17 -14 -39 -26
-49 -26 -10 0 -32 12 -49 26 l-31 26 0 -266z"/>
<path d="M4827 1295 c-34 -30 -56 -31 -90 -5 -14 11 -28 20 -31 20 -3 0 -6
-117 -6 -260 l0 -260 80 0 80 0 0 265 c0 146 -1 265 -2 265 -2 0 -16 -12 -31
-25z"/>
</g>
</svg>
